<?xml version="1.0" encoding="UTF-8"?>
<svg id="Layer_1" data-name="Layer 1" xmlns="http://www.w3.org/2000/svg" viewBox="0 0 360 360">
  <defs>
    <style>
      .cls-1 {
        fill: #0a2a61;
      }
    </style>
  </defs>
  <path class="cls-1" d="M280.8,183.12c-.62-.7-6.39-6.88-16.79-10-4.11-1.23-8.15-1.76-12.07-1.76-12.38,0-23.52,5.28-31.44,10.43-9.72,6.32-19.48,8.38-28.99,6.11-.48-.11-.94-.24-1.4-.37l4.96-5.77c-.69-.6-7.09-5.91-17.53-8.61-9.72-2.51-24.9-3.17-42.05,7.98-10.85,7.05-20.87,9.4-29.8,7-4.63-1.25-9.83-4.14-12.56-5.79v-13.78c1.51.66,3.13,1.29,4.89,1.81,4.11,1.23,8.15,1.76,12.07,1.76,12.38,0,23.52-5.28,31.44-10.43,9.72-6.32,19.48-8.38,28.99-6.11.48.11.94.24,1.4.37l-4.96,5.77c.69.6,7.09,5.91,17.53,8.61,9.71,2.51,24.9,3.17,42.05-7.98,10.85-7.05,20.87-9.4,29.8-7,6.63,1.79,14.44,6.95,14.48,6.99l-.06-.07,7.57-11.7c-.62-.7-6.39-6.88-16.79-10-4.11-1.23-8.15-1.76-12.07-1.76-12.38,0-23.52,5.28-31.44,10.43-9.72,6.32-19.48,8.38-28.99,6.11-.48-.11-.94-.24-1.4-.37l4.96-5.77c-.69-.6-7.09-5.91-17.53-8.61-9.71-2.51-24.9-3.17-42.05,7.98-10.85,7.05-20.87,9.4-29.8,7-5.51-1.48-9.01-4.43-10.06-5.4l-11.92-13.29-2.04,100.61c0,.48.47.81.92.63l12.54-4.92c.25-.1.42-.34.44-.6l.03-32.75c2.12,1.12,4.58,2.19,7.38,3.03,4.11,1.23,8.15,1.76,12.07,1.76,12.38,0,23.52-5.28,31.44-10.43,9.72-6.32,19.48-8.37,28.99-6.11.48.11.94.24,1.4.37l-4.96,5.77c.69.6,7.09,5.91,17.53,8.61,9.71,2.51,24.9,3.17,42.05-7.98,10.85-7.05,20.87-9.4,29.8-7,6.63,1.79,10.36,5.69,10.4,5.73l-.06-.07,11.64-10.44Z"/>
</svg>